Coordinates
version=1
nRows=29
nColumns=24
inDegrees=yes

Units are S.I. units (second, meters, Newtons, ...)
Angles are in degrees.

endheader
time	pelvis_tilt	pelvis_list	pelvis_rotation	pelvis_tx	pelvis_ty	pelvis_tz	hip_flexion_r	hip_adduction_r	hip_rotation_r	knee_angle_r	ankle_angle_r	subtalar_angle_r	mtp_angle_r	hip_flexion_l	hip_adduction_l	hip_rotation_l	knee_angle_l	ankle_angle_l	subtalar_angle_l	mtp_angle_l	lumbar_extension	lumbar_bending	lumbar_rotation
      0.84683333	      3.13176064	     -5.06515004	     -2.45249407	     -0.52038754	      1.02036084	      0.31499724	      7.03847804	      7.43659600	     -5.55736184	    -11.00889945	     -4.05751972	    -11.52824529	     -0.26481146	     13.13022060	    -10.88825916	     -8.63848467	    -71.76100809	      0.45593180	    -15.88295826	     -6.19765831	    -15.23418303	      7.11860959	      6.67496728
      0.85100000	      3.15522315	     -4.98188776	     -2.58737550	     -0.51532718	      1.02115431	      0.31551011	      6.59250065	      7.37787559	     -5.41990247	    -10.82216185	     -3.94220324	    -11.45862668	     -0.24834214	     13.70289177	    -10.80528986	     -8.67385368	    -71.62576572	      0.71973109	    -16.00606590	     -6.25595380	    -15.29302183	      6.99170522	      6.77270533
      0.85516667	      3.17594146	     -4.88250934	     -2.73170938	     -0.51023738	      1.02194099	      0.31602774	      6.14599084	      7.29596223	     -5.29682445	    -10.63155920	     -3.80239156	    -11.32516653	     -0.22728410	     14.25261635	    -10.70703303	     -8.73306090	    -71.41122984	      0.96133297	    -16.12293777	     -6.32228620	    -15.34235654	      6.82793934	      6.92021409
      0.85933333	      3.21219430	     -4.77381254	     -2.90645230	     -0.50510950	      1.02276134	      0.31661566	      5.67676892	      7.20353284	     -5.16367227	    -10.43585727	     -3.62754178	    -11.13541254	     -0.18955803	     14.74663814	    -10.61212828	     -8.84256750	    -71.10255230	      1.12359664	    -16.23480519	     -6.43791100	    -15.40315537	      6.62356591	      7.14760908
      0.86350000	      3.28522732	     -4.66295315	     -3.08824266	     -0.49999736	      1.02361286	      0.31717898	      5.16458287	      7.10268674	     -5.01436977	    -10.22843713	     -3.48051068	    -10.97402179	     -0.14126489	     15.17957807	    -10.51197404	     -8.97111526	    -70.73086507	      1.30961042	    -16.33328071	     -6.58075561	    -15.50610379	      6.44318937	      7.35033706
      0.86766667	      3.30089312	     -4.57939008	     -3.22901285	     -0.49491281	      1.02431199	      0.31765811	      4.71772258	      7.02665990	     -4.91708696	    -10.01693879	     -3.39272647	    -10.86687031	     -0.11799400	     15.68960005	    -10.43168685	     -9.04648145	    -70.33955231	      1.54044615	    -16.44300394	     -6.64304656	    -15.55121051	      6.29534219	      7.44402227
      0.87183333	      3.39865003	     -4.46101211	     -3.41755960	     -0.48976891	      1.02517484	      0.31820994	      4.17440212	      6.90404275	     -4.80126087	     -9.80498387	     -3.19318632	    -10.60970299	     -0.06211401	     16.04808875	    -10.32566898	     -9.20569207	    -69.82252814	      1.64865753	    -16.53082227	     -6.78460757	    -15.67449295	      6.09307403	      7.68245896
      0.87600000	      3.40730446	     -4.38170731	     -3.55812777	     -0.48464623	      1.02581481	      0.31866387	      3.72837841	      6.82492982	     -4.72406007	     -9.58065753	     -3.13014480	    -10.49557810	     -0.03903830	     16.52571569	    -10.25007338	     -9.29496496	    -69.31012051	      1.87640215	    -16.62056249	     -6.83992408	    -15.70291259	      5.94641843	      7.76566845
      0.88016667	      3.60045899	     -4.25976352	     -3.77757107	     -0.47950742	      1.02679878	      0.31926383	      3.07498824	      6.68821474	     -4.58510855	     -9.35092359	     -2.93903380	    -10.24595123	      0.05803491	     16.71864628	    -10.14821419	     -9.52222056	    -68.64684354	      1.97076232	    -16.74457768	     -7.06745203	    -15.94310610	      5.71246365	      8.06290249
      0.88433333	      3.58401719	     -4.17351107	     -3.91282497	     -0.47434057	      1.02735092	      0.31968394	      2.65407085	      6.59363274	     -4.54138932	     -9.12284556	     -2.87194449	    -10.08680366	      0.08231580	     17.18442706	    -10.06490107	     -9.61675520	    -68.01088031	      2.15147453	    -16.75001371	     -7.11831055	    -15.92604304	      5.56605849	      8.12740773
      0.88850000	      3.70499000	     -4.05492614	     -4.10746773	     -0.46918394	      1.02813944	      0.32018688	      2.08793519	      6.44938852	     -4.45676652	     -8.91345162	     -2.63809230	     -9.76775503	      0.14514213	     17.43701364	     -9.95859336	     -9.81850007	    -67.25275249	      2.20359889	    -16.82956419	     -7.24814967	    -16.07261365	      5.34939611	      8.35452384
      0.89266667	      3.72984728	     -3.97617528	     -4.25347396	     -0.46401948	      1.02869375	      0.32058410	      1.61917958	      6.35370094	     -4.40650694	     -8.67417807	     -2.60185804	     -9.62235121	      0.17431497	     17.81103589	     -9.88138315	     -9.94315177	    -66.50195860	      2.40815577	    -16.86958071	     -7.30816666	    -16.10796499	      5.20530271	      8.45273228
      0.89683333	      3.95208302	     -3.86080256	     -4.46949690	     -0.45886036	      1.02959422	      0.32114705	      0.93513066	      6.20289735	     -4.29635932	     -8.44523248	     -2.36415102	     -9.32177359	      0.25214300	     17.89209323	     -9.78751519	    -10.20303085	    -65.60653236	      2.43062590	    -16.94777062	     -7.46688372	    -16.37535903	      4.96172007	      8.71976773
      0.90100000	      3.93555753	     -3.79020965	     -4.60655863	     -0.45364827	      1.03002447	      0.32149337	      0.50970131	      6.11244429	     -4.26213037	     -8.20436177	     -2.34406714	     -9.19501580	      0.27727102	     18.27271033	     -9.71784272	    -10.32852404	    -64.74745730	      2.59454944	    -16.94356198	     -7.51791749	    -16.34895261	      4.84419262	      8.79812463
      0.90516667	      4.13947160	     -3.67818083	     -4.83313663	     -0.44849628	      1.03082275	      0.32203735	     -0.14418234	      5.95711459	     -4.13682889	     -7.99248871	     -2.09277773	     -8.89257324	      0.35271225	     18.33219372	     -9.62887718	    -10.61093653	    -63.74625167	      2.60291622	    -17.01999296	     -7.66820679	    -16.59444299	      4.60831747	      9.06661512
      0.90933333	      4.24857191	     -3.58183848	     -5.02634281	     -0.44327543	      1.03142317	      0.32250392	     -0.70225445	      5.82442930	     -4.05014513	     -7.76084101	     -1.99014971	     -8.72031738	      0.42162359	     18.49164021	     -9.55055868	    -10.84932749	    -62.72153124	      2.67594297	    -17.02137441	     -7.81068500	    -16.71311283	      4.42111505	      9.25131001
      0.91350000	      4.34449618	     -3.50477728	     -5.21417731	     -0.43808629	      1.03194329	      0.32295050	     -1.24190561	      5.71083513	     -3.94873839	     -7.53659461	     -1.86084941	     -8.53106514	      0.48879136	     18.65545718	     -9.49035220	    -11.07909274	    -61.66178454	      2.74103092	    -17.05005744	     -7.95122464	    -16.82420494	      4.24849063	      9.43745466
      0.91766667	      4.46320942	     -3.43484012	     -5.40701335	     -0.43289847	      1.03245299	      0.32340918	     -1.80477648	      5.60070910	     -3.83815969	     -7.31323444	     -1.73866427	     -8.36529487	      0.55580038	     18.76916646	     -9.44180135	    -11.33155591	    -60.54901518	      2.80309287	    -17.06769087	     -8.09602223	    -16.96163167	      4.07956811	      9.62480158
      0.92183333	      4.54048892	     -3.37153261	     -5.60026084	     -0.42770325	      1.03286236	      0.32385640	     -2.31786687	      5.49857331	     -3.71344259	     -7.10015851	     -1.61802034	     -8.20888145	      0.61893659	     18.91007920	     -9.40081327	    -11.58294117	    -59.39063427	      2.85366211	    -17.09551921	     -8.23849596	    -17.04933649	      3.92186758	      9.81014165
      0.92600000	      4.60070330	     -3.31720906	     -5.79297332	     -0.42249455	      1.03319333	      0.32429924	     -2.80689800	      5.40492751	     -3.60066317	     -6.89991118	     -1.49277262	     -8.07273102	      0.67273760	     19.05041506	     -9.37471123	    -11.84769517	    -58.18985074	      2.90053526	    -17.10676740	     -8.36605706	    -17.11570159	      3.78147679	      9.98546276
      0.93016667	      4.65598055	     -3.27634420	     -5.98328952	     -0.41730329	      1.03347392	      0.32473720	     -3.29133469	      5.32555255	     -3.45234778	     -6.69461785	     -1.37970511	     -7.94927729	      0.72596544	     19.17772959	     -9.35997665	    -12.10897151	    -56.94355896	      2.93390267	    -17.12851485	     -8.50040578	    -17.18407514	      3.64604024	     10.17785978
      0.93433333	      4.71724547	     -3.24334878	     -6.17619506	     -0.41210709	      1.03371774	      0.32517518	     -3.77587123	      5.25050324	     -3.31160962	     -6.50301674	     -1.25858655	     -7.83963689	      0.77458796	     19.27373474	     -9.35727481	    -12.39289538	    -55.64682399	      2.96761267	    -17.13813331	     -8.63004945	    -17.25368812	      3.52356818	     10.35701297
      0.93850000	      4.75523119	     -3.22401826	     -6.36583529	     -0.40690994	      1.03387779	      0.32561028	     -4.23370853	      5.19152806	     -3.15538720	     -6.31540251	     -1.14608808	     -7.75208476	      0.81887591	     19.37755970	     -9.37001301	    -12.67731663	    -54.30946071	      2.98580097	    -17.15129497	     -8.75772508	    -17.30119790	      3.41553809	     10.54208137
      0.94266667	      4.76048715	     -3.21173492	     -6.54978917	     -0.40169549	      1.03394301	      0.32601402	     -4.64897655	      5.13980261	     -3.01442181	     -6.14535131	     -1.02241593	     -7.66992558	      0.85521066	     19.49830424	     -9.38985521	    -12.96637087	    -52.92998516	      3.00951760	    -17.16668911	     -8.87135846	    -17.30809813	      3.32672923	     10.70616113
      0.94683333	      4.76651757	     -3.21127652	     -6.73157104	     -0.39648325	      1.03396474	      0.32642549	     -5.06520605	      5.10050358	     -2.85787812	     -5.97558436	     -0.90720519	     -7.60556894	      0.88711289	     19.59665583	     -9.42170150	    -13.26417926	    -51.50359875	      3.01994607	    -17.17491302	     -8.98112021	    -17.31796908	      3.24459272	     10.87697562
      0.95100000	      4.66682208	     -3.26401139	     -6.81784216	     -0.39125752	      1.03372894	      0.32662274	     -5.37412182	      5.13266036	     -2.79770590	     -5.79836153	     -0.85458278	     -7.56388161	      0.89757518	     19.84146193	     -9.48426433	    -13.43816126	    -50.08978386	      3.01316272	    -17.10916159	     -9.02415349	    -17.21148027	      3.27779402	     10.94832852
      0.95516667	      4.69468626	     -3.25572645	     -7.07309580	     -0.38606749	      1.03373095	      0.32716074	     -5.79111355	      5.07281583	     -2.54578151	     -5.67886330	     -0.64015720	     -7.47689895	      0.92332299	     19.83770172	     -9.52856130	    -13.85499387	    -48.53746746	      3.00066917	    -17.20027798	     -9.13137514	    -17.25400902	      3.15901894	     11.17749104
      0.95933333	      4.69500967	     -3.29442942	     -7.26472807	     -0.38086164	      1.03362350	      0.32760714	     -6.19187120	      5.07217391	     -2.35594891	     -5.53448685	     -0.53346525	     -7.46958647	      0.94653332	     19.86923491	     -9.61167449	    -14.21166740	    -46.97014398	      2.96392822	    -17.13073676	     -9.25865597	    -17.26671970	      3.11655032	     11.40829786
      0.96350000	      4.61744932	     -3.34169757	     -7.39646769	     -0.37562604	      1.03331775	      0.32787446	     -6.50722081	      5.08776106	     -2.22543752	     -5.39919458	     -0.41329005	     -7.43168002	      0.95847571	     19.99335873	     -9.67037810	    -14.48325622	    -45.38777133	      2.98789118	    -17.12199813	     -9.33910433	    -17.17983158	      3.11451149	     11.50280786
